<svg width="817" height="626" viewBox="0 0 817 626" fill="none" xmlns="http://www.w3.org/2000/svg">
<path d="M388.422 625.5C561.011 625.5 700.922 485.589 700.922 313C700.922 140.411 561.011 0.5 388.422 0.5C215.833 0.5 75.9224 140.411 75.9224 313C75.9224 485.589 215.833 625.5 388.422 625.5Z" stroke="#2199FA"/>
<path fill-rule="evenodd" clip-rule="evenodd" d="M8.44773 118C79.2893 -19.7634 222.851 -114 388.422 -114C624.248 -114 815.422 77.1744 815.422 313C815.422 548.826 624.248 740 388.422 740C216.908 740 69.0121 638.877 1.10302 493H0C67.9792 639.446 216.341 741 388.422 741C624.8 741 816.422 549.378 816.422 313C816.422 76.6221 624.8 -115 388.422 -115C222.28 -115 78.2482 -20.3344 7.32337 118H8.44773Z" fill="#2199FA"/>
</svg>
