<svg width="9" height="14" viewBox="0 0 9 14" fill="none" xmlns="http://www.w3.org/2000/svg">
<path d="M8.04023 6.29004L2.38023 0.640037C2.28726 0.546308 2.17666 0.471914 2.0548 0.421145C1.93294 0.370377 1.80224 0.344238 1.67023 0.344238C1.53821 0.344238 1.40751 0.370377 1.28565 0.421145C1.16379 0.471914 1.05319 0.546308 0.960226 0.640037C0.773975 0.827399 0.669434 1.08085 0.669434 1.34504C0.669434 1.60922 0.773975 1.86267 0.960226 2.05004L5.91023 7.05004L0.960226 12C0.773975 12.1874 0.669434 12.4409 0.669434 12.705C0.669434 12.9692 0.773975 13.2227 0.960226 13.41C1.05284 13.5045 1.16329 13.5797 1.28516 13.6312C1.40704 13.6827 1.53792 13.7095 1.67023 13.71C1.80253 13.7095 1.93342 13.6827 2.05529 13.6312C2.17717 13.5797 2.28761 13.5045 2.38023 13.41L8.04023 7.76004C8.14173 7.66639 8.22274 7.55274 8.27815 7.42624C8.33355 7.29974 8.36216 7.16314 8.36216 7.02504C8.36216 6.88693 8.33355 6.75033 8.27815 6.62383C8.22274 6.49733 8.14173 6.38368 8.04023 6.29004Z" fill="#29384E"/>
</svg>
