<svg width="9" height="14" viewBox="0 0 9 14" fill="none" xmlns="http://www.w3.org/2000/svg">
<path d="M0.975399 7.41992L6.6354 13.0699C6.72836 13.1637 6.83896 13.238 6.96082 13.2888C7.08268 13.3396 7.21339 13.3657 7.3454 13.3657C7.47741 13.3657 7.60812 13.3396 7.72998 13.2888C7.85183 13.238 7.96244 13.1637 8.0554 13.0699C8.24165 12.8826 8.34619 12.6291 8.34619 12.3649C8.34619 12.1007 8.24165 11.8473 8.0554 11.6599L3.1054 6.65992L8.0554 1.70992C8.24165 1.52256 8.34619 1.26911 8.34619 1.00492C8.34619 0.740739 8.24165 0.487287 8.0554 0.299925C7.96278 0.205437 7.85234 0.130266 7.73046 0.0787697C7.60859 0.0272731 7.47771 0.000474863 7.3454 -7.43866e-05C7.21309 0.000474863 7.08221 0.0272731 6.96033 0.0787697C6.83846 0.130266 6.72801 0.205437 6.6354 0.299925L0.975399 5.94992C0.873894 6.04357 0.792886 6.15722 0.737478 6.28372C0.682071 6.41022 0.653466 6.54682 0.653466 6.68492C0.653466 6.82303 0.682071 6.95963 0.737478 7.08613C0.792886 7.21263 0.873894 7.32628 0.975399 7.41992V7.41992Z" fill="#29384E"/>
</svg>
