<svg width="48" height="48" viewBox="0 0 48 48" fill="none" xmlns="http://www.w3.org/2000/svg">
<circle cx="24" cy="24" r="24" fill="#546071"/>
<path d="M32.4701 14H15.5301C15.3396 13.9974 15.1506 14.0323 14.9736 14.1027C14.7967 14.1731 14.6354 14.2777 14.4989 14.4105C14.3624 14.5433 14.2533 14.7017 14.1781 14.8766C14.1028 15.0516 14.0627 15.2396 14.0601 15.43V32.57C14.0627 32.7604 14.1028 32.9485 14.1781 33.1234C14.2533 33.2983 14.3624 33.4567 14.4989 33.5895C14.6354 33.7223 14.7967 33.8269 14.9736 33.8973C15.1506 33.9678 15.3396 34.0027 15.5301 34H32.4701C32.6605 34.0027 32.8496 33.9678 33.0265 33.8973C33.2034 33.8269 33.3648 33.7223 33.5013 33.5895C33.6378 33.4567 33.7468 33.2983 33.8221 33.1234C33.8974 32.9485 33.9375 32.7604 33.9401 32.57V15.43C33.9375 15.2396 33.8974 15.0516 33.8221 14.8766C33.7468 14.7017 33.6378 14.5433 33.5013 14.4105C33.3648 14.2777 33.2034 14.1731 33.0265 14.1027C32.8496 14.0323 32.6605 13.9974 32.4701 14ZM20.0901 30.74H17.0901V21.74H20.0901V30.74ZM18.5901 20.48C18.1763 20.48 17.7795 20.3157 17.487 20.0231C17.1944 19.7305 17.0301 19.3338 17.0301 18.92C17.0301 18.5063 17.1944 18.1095 17.487 17.8169C17.7795 17.5244 18.1763 17.36 18.5901 17.36C18.8098 17.3351 19.0322 17.3569 19.2429 17.4239C19.4536 17.4909 19.6478 17.6017 19.8127 17.749C19.9776 17.8963 20.1096 18.0767 20.1999 18.2785C20.2903 18.4803 20.337 18.6989 20.337 18.92C20.337 19.1411 20.2903 19.3597 20.1999 19.5615C20.1096 19.7633 19.9776 19.9438 19.8127 20.0911C19.6478 20.2383 19.4536 20.3491 19.2429 20.4161C19.0322 20.4832 18.8098 20.5049 18.5901 20.48ZM30.9101 30.74H27.9101V25.91C27.9101 24.7 27.4801 23.91 26.3901 23.91C26.0527 23.9125 25.7242 24.0183 25.4489 24.2132C25.1735 24.4081 24.9645 24.6827 24.8501 25C24.7718 25.2351 24.7379 25.4826 24.7501 25.73V30.73H21.7501C21.7501 30.73 21.7501 22.55 21.7501 21.73H24.7501V23C25.0226 22.5271 25.419 22.1375 25.8965 21.8732C26.374 21.6089 26.9146 21.4799 27.4601 21.5C29.4601 21.5 30.9101 22.79 30.9101 25.56V30.74Z" fill="white"/>
</svg>
