<svg width="48" height="48" viewBox="0 0 48 48" fill="none" xmlns="http://www.w3.org/2000/svg">
<circle cx="24" cy="24" r="24" fill="#546071"/>
<path d="M34 17.8C33.2483 18.1261 32.4534 18.3417 31.64 18.44C32.4982 17.9273 33.1413 17.1208 33.45 16.17C32.6436 16.6501 31.7608 16.9883 30.84 17.17C30.2245 16.5026 29.405 16.0583 28.5098 15.9069C27.6147 15.7554 26.6945 15.9054 25.8938 16.3332C25.093 16.761 24.4569 17.4426 24.0852 18.2709C23.7135 19.0992 23.6273 20.0274 23.84 20.91C22.2094 20.8276 20.6144 20.403 19.1587 19.6639C17.7029 18.9248 16.4188 17.8877 15.39 16.62C15.0291 17.2502 14.8395 17.9638 14.84 18.69C14.8387 19.3644 15.0042 20.0286 15.3218 20.6236C15.6393 21.2185 16.099 21.7257 16.66 22.1C16.008 22.0823 15.3699 21.9073 14.8 21.59V21.64C14.8049 22.5849 15.136 23.4991 15.7373 24.228C16.3386 24.9569 17.1733 25.4557 18.1 25.64C17.7433 25.7486 17.3729 25.8058 17 25.81C16.7419 25.807 16.4844 25.7836 16.23 25.74C16.4939 26.5528 17.0046 27.2632 17.6911 27.7722C18.3775 28.2812 19.2056 28.5636 20.06 28.58C18.6172 29.7153 16.8359 30.3349 15 30.34C14.6657 30.3411 14.3317 30.3211 14 30.28C15.8744 31.4903 18.0588 32.1327 20.29 32.13C21.8297 32.146 23.3571 31.855 24.7831 31.2741C26.2091 30.6932 27.505 29.8339 28.5952 28.7465C29.6854 27.6591 30.548 26.3654 31.1326 24.9409C31.7172 23.5164 32.012 21.9898 32 20.45C32 20.28 32 20.1 32 19.92C32.7847 19.3348 33.4615 18.6175 34 17.8Z" fill="white"/>
</svg>
